# xmcd CD database file
#
# Track frame offsets:
#	182
#	38472
#	57700
#	86855
#	107245
#	136552
#	161355
#	192215
#	220897
#
# Disc length: 4285 seconds
#
# Revision: 5
# Processed by: cddbd v1.5PL3 Copyright (c) Steve Scherf et al.
# Submitted via: CDex 1.51
#
DISCID=7610bb09
DTITLE=Mah Damba - Nyarela
DYEAR=1900
DGENRE=
TTITLE0=Banaman Tiekele
TTITLE1=Konani
TTITLE2=Den Kolo 
TTITLE3=Ndialla
TTITLE4=Den Niale
TTITLE5=Lahidou
TTITLE6=Saya
TTITLE7=Sowou Tara
TTITLE8=Nyarela
EXTD=
EXTT0=
EXTT1=
EXTT2=
EXTT3=
EXTT4=
EXTT5=
EXTT6=
EXTT7=
EXTT8=
PLAYORDER=
